<svg width="325" height="103" viewBox="0 0 325 103" fill="none" xmlns="http://www.w3.org/2000/svg">
<path d="M94.5783 81V21.2916H113.429C117.523 21.2916 121.021 21.9171 123.921 23.1681C126.821 24.4192 129.067 26.2673 130.659 28.7125C132.252 31.1008 133.048 34.0294 133.048 37.4981C133.048 40.3983 132.394 42.9572 131.086 45.1749C129.778 47.3358 127.93 49.0986 125.541 50.4634C128.498 51.885 130.773 53.79 132.365 56.1784C134.014 58.5667 134.839 61.41 134.839 64.7081C134.839 68.1769 134.071 71.1339 132.536 73.5791C131 75.9674 128.811 77.8156 125.968 79.1234C123.182 80.3745 119.826 81 115.903 81H94.5783ZM101.743 74.5174H115.562C119.315 74.5174 122.243 73.636 124.347 71.8731C126.508 70.0535 127.589 67.5798 127.589 64.4522C127.589 61.0972 126.366 58.4814 123.921 56.6048C121.476 54.6714 118.064 53.7047 113.685 53.7047H101.743V74.5174ZM101.743 47.478H115.22C118.519 47.478 121.106 46.5966 122.982 44.8338C124.859 43.0709 125.797 40.6257 125.797 37.4981C125.797 34.2568 124.688 31.7832 122.471 30.0772C120.31 28.3144 117.239 27.433 113.259 27.433H101.743V47.478ZM140.923 81V38.3511H147.747V81H140.923ZM144.42 28.4566C143.283 28.4566 142.288 28.0301 141.435 27.1771C140.582 26.3241 140.155 25.329 140.155 24.1917C140.155 22.9975 140.582 22.0024 141.435 21.2063C142.288 20.3533 143.283 19.9268 144.42 19.9268C145.614 19.9268 146.61 20.3533 147.406 21.2063C148.259 22.0024 148.685 22.9975 148.685 24.1917C148.685 25.329 148.259 26.3241 147.406 27.1771C146.61 28.0301 145.614 28.4566 144.42 28.4566ZM172.093 82.0236C167.941 82.0236 164.729 80.9431 162.454 78.7823C160.179 76.6214 159.042 73.5791 159.042 69.6554V25.0447H165.866V68.973C165.866 71.1339 166.435 72.8114 167.572 74.0056C168.766 75.1429 170.415 75.7115 172.519 75.7115C173.202 75.7115 173.855 75.6262 174.481 75.4556C175.163 75.2282 176.045 74.7164 177.125 73.9203L179.769 79.4646C178.291 80.4313 176.955 81.0853 175.76 81.4265C174.566 81.8245 173.344 82.0236 172.093 82.0236ZM151.621 44.4073V38.3511H178.661V44.4073H151.621ZM184.028 81V21.2916H190.852V81H184.028ZM217.186 82.0236C213.035 82.0236 209.367 81.0853 206.182 79.2087C202.998 77.2753 200.496 74.6311 198.676 71.2761C196.913 67.921 196.032 64.0542 196.032 59.6756C196.032 55.2969 196.913 51.4301 198.676 48.0751C200.496 44.72 202.97 42.1042 206.097 40.2277C209.282 38.2943 212.921 37.3276 217.015 37.3276C220.996 37.3276 224.436 38.3227 227.336 40.313C230.236 42.2464 232.483 44.9759 234.075 48.5016C235.667 52.0272 236.463 56.1784 236.463 60.955H201.235L202.941 59.505C202.941 62.9169 203.538 65.8454 204.732 68.2906C205.983 70.7358 207.718 72.6124 209.936 73.9203C212.153 75.1713 214.684 75.7968 217.527 75.7968C220.541 75.7968 223.071 75.086 225.119 73.6644C227.223 72.2428 228.843 70.3662 229.981 68.0347L235.866 71.0202C234.786 73.2379 233.336 75.1713 231.516 76.8204C229.753 78.4695 227.649 79.749 225.204 80.6588C222.815 81.5687 220.143 82.0236 217.186 82.0236ZM203.368 56.6048L201.576 55.2401H231.004L229.213 56.6901C229.213 53.9606 228.673 51.6007 227.592 49.6104C226.512 47.6201 225.062 46.0848 223.242 45.0043C221.422 43.9239 219.318 43.3837 216.93 43.3837C214.598 43.3837 212.381 43.9239 210.277 45.0043C208.23 46.0848 206.552 47.6201 205.244 49.6104C203.993 51.5438 203.368 53.8753 203.368 56.6048ZM267.076 81L266.735 74.0056V58.4814C266.735 55.1264 266.366 52.3684 265.626 50.2075C264.887 47.9898 263.721 46.3122 262.129 45.1749C260.537 44.0376 258.461 43.469 255.902 43.469C253.571 43.469 251.552 43.9523 249.846 44.9191C248.197 45.8289 246.832 47.3074 245.752 49.3545L239.61 46.9662C240.691 44.9759 241.999 43.27 243.534 41.8483C245.07 40.3698 246.861 39.261 248.908 38.5217C250.955 37.7256 253.287 37.3276 255.902 37.3276C259.883 37.3276 263.153 38.1237 265.712 39.7159C268.327 41.2512 270.289 43.5543 271.597 46.625C272.905 49.6389 273.531 53.392 273.474 57.8843L273.388 81H267.076ZM254.282 82.0236C249.278 82.0236 245.354 80.8863 242.511 78.6117C239.724 76.2802 238.331 73.0673 238.331 68.973C238.331 64.6513 239.753 61.3531 242.596 59.0785C245.496 56.747 249.533 55.5813 254.708 55.5813H266.906V61.2962H256.244C252.263 61.2962 249.42 61.9502 247.714 63.2581C246.065 64.566 245.24 66.4425 245.24 68.8877C245.24 71.1055 246.065 72.8683 247.714 74.1762C249.363 75.4272 251.666 76.0527 254.623 76.0527C257.068 76.0527 259.201 75.5409 261.02 74.5174C262.84 73.4369 264.233 71.93 265.2 69.9966C266.223 68.0063 266.735 65.6748 266.735 63.0022H269.635C269.635 68.8024 268.327 73.4369 265.712 76.9057C263.096 80.3176 259.286 82.0236 254.282 82.0236ZM284.287 81V33.4892C284.287 29.0537 285.31 25.7271 287.357 23.5093C289.461 21.2347 292.646 20.0974 296.911 20.0974C298.048 20.0974 299.327 20.2964 300.749 20.6945C302.171 21.0925 303.678 21.6612 305.27 22.4004L302.711 27.7742C301.403 27.2624 300.294 26.8644 299.384 26.58C298.474 26.2957 297.707 26.1535 297.081 26.1535C295.091 26.1535 293.584 26.8075 292.56 28.1154C291.594 29.3664 291.11 31.3283 291.11 34.0009V81H284.287ZM276.439 44.2367V38.3511H303.479V44.2367H276.439Z" fill="#1E6E47"/>
<path fill-rule="evenodd" clip-rule="evenodd" d="M3.24324 30.5353L0 30.5353C0 37.5086 3.61184 43.6435 9.07738 47.1921C12.2175 49.2308 15.9695 50.416 20 50.416C24.0305 50.416 27.7825 49.2308 30.9226 47.1921C33.248 45.6822 35.2379 43.7043 36.7568 41.3927C38.8078 38.2713 40 34.5417 40 30.5353L36.7568 30.5353C36.7556 30.5353 36.7544 30.5353 36.7532 30.5353C27.5003 30.5372 20 37.9939 20 47.1921C20 37.9964 12.5036 30.5411 3.25412 30.5353C3.25049 30.5353 3.24687 30.5353 3.24324 30.5353ZM20 47.1921L30.9226 47.1921H9.07738L20 47.1921Z" fill="#1E6E47"/>
<path fill-rule="evenodd" clip-rule="evenodd" d="M43.2432 30.5353L40 30.5353C40 37.5086 43.6118 43.6435 49.0774 47.1921C52.2175 49.2308 55.9695 50.416 60 50.416C64.0305 50.416 67.7825 49.2308 70.9226 47.1921C73.248 45.6822 75.2379 43.7043 76.7568 41.3927C78.8078 38.2713 80 34.5417 80 30.5353L76.7568 30.5353C76.7556 30.5353 76.7544 30.5353 76.7532 30.5353C67.5003 30.5372 60 37.9939 60 47.1921C60 37.9964 52.5036 30.5411 43.2541 30.5353C43.2505 30.5353 43.2469 30.5353 43.2432 30.5353ZM60 47.1921L70.9226 47.1921H49.0774L60 47.1921Z" fill="#1E6E47"/>
<path fill-rule="evenodd" clip-rule="evenodd" d="M23.4902 10.2915L20.2469 10.2915C20.2469 17.2649 23.8588 23.3997 29.3243 26.9483C32.4644 28.9871 36.2164 30.1722 40.2469 30.1722C44.2774 30.1722 48.0294 28.9871 51.1695 26.9483C53.4949 25.4385 55.4848 23.4605 57.0037 21.149C59.0547 18.0276 60.2469 14.2979 60.2469 10.2915L57.0037 10.2915C57.0025 10.2915 57.0013 10.2915 57.0001 10.2915C47.7473 10.2934 40.2469 17.7502 40.2469 26.9483C40.2469 17.7526 32.7505 10.2973 23.501 10.2915C23.4974 10.2915 23.4938 10.2915 23.4902 10.2915ZM40.2469 26.9483L51.1695 26.9483L29.3243 26.9483L40.2469 26.9483Z" fill="#1E6E47"/>
<path fill-rule="evenodd" clip-rule="evenodd" d="M23.4902 50.779L20.2469 50.779C20.2469 57.7524 23.8588 63.8872 29.3243 67.4358C32.4644 69.4746 36.2164 70.6597 40.2469 70.6597C44.2774 70.6597 48.0294 69.4746 51.1695 67.4358C53.4949 65.926 55.4848 63.948 57.0037 61.6365C59.0547 58.5151 60.2469 54.7854 60.2469 50.779L57.0037 50.779C57.0025 50.779 57.0013 50.779 57.0001 50.779C47.7473 50.7809 40.2469 58.2377 40.2469 67.4358C40.2469 58.2401 32.7505 50.7848 23.501 50.779C23.4974 50.779 23.4938 50.779 23.4902 50.779ZM40.2469 67.4358L51.1695 67.4358H29.3243L40.2469 67.4358Z" fill="#1E6E47"/>
<path fill-rule="evenodd" clip-rule="evenodd" d="M36.7568 69.0478L40 69.0478C40 62.0744 36.3882 55.9396 30.9226 52.391C27.7825 50.3522 24.0305 49.1671 20 49.1671C15.9695 49.1671 12.2175 50.3522 9.07739 52.391C6.75198 53.9008 4.76212 55.8788 3.24324 58.1903C1.19223 61.3117 7.5352e-06 65.0413 7.5352e-06 69.0478L3.24324 69.0478C3.24441 69.0478 3.24559 69.0478 3.24677 69.0478C12.4997 69.0459 20 61.5891 20 52.391C20 61.5867 27.4964 69.0419 36.7459 69.0478C36.7495 69.0478 36.7531 69.0478 36.7568 69.0478ZM20 52.391L9.07739 52.391H30.9226L20 52.391Z" fill="#1E6E47"/>
<path fill-rule="evenodd" clip-rule="evenodd" d="M76.7568 69.0478L80 69.0478C80 62.0744 76.3882 55.9396 70.9226 52.391C67.7825 50.3522 64.0305 49.1671 60 49.1671C55.9695 49.1671 52.2175 50.3522 49.0774 52.391C46.752 53.9008 44.7621 55.8788 43.2432 58.1903C41.1922 61.3117 40 65.0413 40 69.0478L43.2432 69.0478C43.2444 69.0478 43.2456 69.0478 43.2468 69.0478C52.4997 69.0459 60 61.5891 60 52.391C60 61.5867 67.4964 69.0419 76.7459 69.0478C76.7495 69.0478 76.7531 69.0478 76.7568 69.0478ZM60 52.391L49.0774 52.391H70.9226L60 52.391Z" fill="#1E6E47"/>
<path fill-rule="evenodd" clip-rule="evenodd" d="M57.0037 48.804L60.2469 48.804C60.2469 41.8306 56.6351 35.6958 51.1695 32.1472C48.0294 30.1084 44.2774 28.9233 40.2469 28.9233C36.2164 28.9233 32.4644 30.1084 29.3243 32.1472C26.9989 33.657 25.009 35.635 23.4902 37.9466C21.4391 41.068 20.2469 44.7976 20.2469 48.804L23.4902 48.804C23.4913 48.804 23.4925 48.804 23.4937 48.804C32.7466 48.8021 40.2469 41.3453 40.2469 32.1472C40.2469 41.3429 47.7433 48.7982 56.9928 48.804C56.9964 48.804 57 48.804 57.0037 48.804ZM40.2469 32.1472L29.3243 32.1472L51.1695 32.1472L40.2469 32.1472Z" fill="#1E6E47"/>
<path fill-rule="evenodd" clip-rule="evenodd" d="M57.0037 89.2915L60.2469 89.2915C60.2469 82.3181 56.6351 76.1833 51.1695 72.6347C48.0294 70.5959 44.2774 69.4108 40.2469 69.4108C36.2164 69.4108 32.4644 70.5959 29.3243 72.6347C26.9989 74.1445 25.009 76.1225 23.4902 78.4341C21.4391 81.5554 20.2469 85.2851 20.2469 89.2915L23.4902 89.2915C23.4913 89.2915 23.4925 89.2915 23.4937 89.2915C32.7466 89.2896 40.2469 81.8328 40.2469 72.6347C40.2469 81.8304 47.7433 89.2857 56.9928 89.2915C56.9964 89.2915 57 89.2915 57.0037 89.2915ZM40.2469 72.6347L29.3243 72.6347H51.1695L40.2469 72.6347Z" fill="#1E6E47"/>
</svg>
